<svg width="44" height="48" viewBox="0 0 44 48" fill="none" xmlns="http://www.w3.org/2000/svg">
<path d="M42.9689 18.2834C41.8666 13.6199 39.94 8.30063 36.3763 4.94512C36.2717 4.84577 36.1638 4.75765 36.054 4.67557C38.067 2.68853 34.8739 -0.420755 32.6882 1.51359C28.4454 5.27169 23.5054 8.03195 18.3365 10.3032C18.1413 10.3637 17.9512 10.438 17.7663 10.5235C13.3499 10.3386 7.94086 9.39609 4.86095 6.22979C2.7806 4.09069 -0.484193 7.36154 1.59442 9.49717C4.88773 12.8846 9.99702 14.3818 14.8489 14.9235C14.8437 15.3684 14.9024 15.8168 15.0441 16.2583C16.9387 22.1633 21.0113 27.9386 27.0562 30.0242C27.4527 30.1624 27.8562 30.2246 28.2562 30.235C28.2562 35.1335 28.2562 40.0302 28.2562 44.927C28.2562 49.0237 34.6104 49.0237 34.6104 44.927C34.6104 38.7456 34.6104 32.5624 34.6104 26.3827C38.7089 24.8 43.8648 22.0639 42.9689 18.2834ZM30.7046 21.0402C30.3746 20.8466 30.0247 20.6799 29.6523 20.552C30.01 20.7481 29.9219 20.7041 29.3836 20.4199C29.1037 20.2747 28.9888 20.2281 28.9448 20.2186C28.9145 20.1788 28.8195 20.0838 28.5655 19.8687C27.9901 19.384 27.2998 18.6678 26.9249 18.1693C25.7871 16.6574 24.9534 15.0307 24.5309 13.7166C24.4126 13.3529 24.2579 13.0099 24.0774 12.6868C26.5413 11.4471 28.9188 10.0613 31.1832 8.49847C31.3422 8.82244 31.5694 9.13864 31.8856 9.43583C34.1966 11.6129 35.4977 14.9434 36.3633 18.0855C34.6933 19.4488 32.7651 20.3317 30.7046 21.0402Z" fill="white"/>
</svg>
