<svg width="35" height="32" viewBox="0 0 35 32" fill="none" xmlns="http://www.w3.org/2000/svg">
<path d="M30.92 9.15723C27.1965 11.1357 23.4906 13.1789 19.87 15.3514C18.5826 14.0746 17.5155 13.0584 17.2405 11.8501C17.2556 11.7779 17.1928 11.0322 17.1966 10.9267C17.211 10.5476 17.2299 10.1685 17.2701 9.79058C17.3862 8.72663 17.5783 7.66958 17.7515 6.61253C18.0327 4.88949 17.2996 3.17524 15.4861 2.6894C14.8415 2.51678 14.1077 2.58206 13.448 2.83628C13.2069 2.70446 12.9301 2.61282 12.6144 2.57766C9.94854 2.28202 7.33166 1.69512 4.82148 0.746032C2.31507 -0.201169 1.24295 3.80796 3.71924 4.74449C6.16727 5.67035 8.7013 6.21017 11.2805 6.55917C11.2717 6.60813 11.2636 6.6571 11.2542 6.70606C8.24182 7.28417 5.28786 8.10081 2.37972 9.10262C-0.132967 9.96759 0.946679 13.9748 3.48196 13.1011C5.87351 12.2769 8.29455 11.5783 10.7539 11.0341C10.7514 11.9392 10.843 12.8312 11.0859 13.6886C11.6634 15.7211 12.9257 17.3581 14.3437 18.8634C13.4787 19.4509 12.6087 20.0278 11.6948 20.5255C10.0716 21.41 8.26505 22.5869 7.64049 24.4349C6.48112 27.8659 10.0596 29.2255 11.8768 31.3201C13.6313 33.3438 16.552 30.398 14.8088 28.3875C13.937 27.3825 12.7519 26.7643 11.8279 25.8246C11.3835 25.3708 11.4418 25.7806 11.9277 25.3394C12.6332 24.6972 13.4517 24.3206 14.2696 23.8436C16.8376 22.3471 19.2473 20.5626 21.8083 19.0404C25.4923 16.8535 29.2278 14.7494 33.0115 12.737C35.3742 11.4816 33.2802 7.90245 30.92 9.15723Z" fill="white"/>
</svg>
