<svg width="48" height="45" viewBox="0 0 48 45" fill="none" xmlns="http://www.w3.org/2000/svg">
<path d="M43.1713 12.3676C37.852 15.194 32.5578 18.1128 27.3855 21.2164C25.5464 19.3925 24.0219 17.9407 23.6292 16.2145C23.6507 16.1114 23.561 15.0461 23.5664 14.8954C23.587 14.3538 23.6139 13.8122 23.6713 13.2724C23.8372 11.7524 24.1116 10.2424 24.3591 8.73229C24.7608 6.2708 23.7135 3.82187 21.1229 3.12781C20.2019 2.88122 19.1537 2.97447 18.2112 3.33764C17.8669 3.14933 17.4714 3.01841 17.0204 2.9682C13.212 2.54584 9.47363 1.70741 5.88766 0.351579C2.30707 -1.00157 0.775478 4.72576 4.31302 6.06366C7.81022 7.38632 11.4303 8.15749 15.1149 8.65607C15.1023 8.72601 15.0907 8.79595 15.0772 8.8659C10.7739 9.69177 6.55392 10.8584 2.39943 12.2896C-1.19012 13.5252 0.352228 19.2499 3.97406 18.0016C7.39055 16.8243 10.8492 15.8262 14.3625 15.0488C14.3589 16.3418 14.4899 17.6161 14.8369 18.841C15.6619 21.7445 17.4652 24.0832 19.4908 26.2335C18.2552 27.0728 17.0123 27.8969 15.7067 28.608C13.3878 29.8715 10.807 31.5528 9.91481 34.1928C8.25858 39.0942 13.3708 41.0365 15.9667 44.0288C18.4731 46.9198 22.6455 42.7116 20.1553 39.8394C18.9098 38.4037 17.2168 37.5205 15.8968 36.1781C15.2619 35.5298 15.3453 36.1153 16.0394 35.4849C17.0473 34.5676 18.2166 34.0295 19.385 33.348C23.0535 31.2103 26.496 28.6609 30.1546 26.4864C35.4174 23.3622 40.7538 20.3564 46.1592 17.4815C49.5344 15.6881 46.543 10.575 43.1713 12.3676Z" fill="white"/>
</svg>
