<svg xmlns="http://www.w3.org/2000/svg" height="800" width="1200" version="1.0" viewBox="-21.9915 -8.655625 190.593 51.93375"><path d="M.275.2763h34.07v34.0712H.275z" fill="#99A5B6" stroke="#fc0900" stroke-width=".55" stroke-miterlimit="3.864"/><path fill="#99A5B6" d="M34.545.275h111.79v34.07H34.545z" stroke="#231f20" stroke-width=".55" stroke-miterlimit="3.864"/><path d="M23.075 4.8087L4.7 13.5587l4.3125 3.7188-7.7188 3.7188 10.25 8.875 18.2813-8.875-4.2813-3.7188 7.7188-3.7188zm24.5 3.5938l-2.5313 3.8438h2.3125L41.2625 21.59c-.2825.4637-.4688 1.0112-.4688 1.5938 0 1.7013 1.4075 3.0624 3.125 3.0624h4.875c2.4263 0 4.4938-1.3525 5.4688-3.3437-.0063.0824-.0313.1976-.0313.2813 0 1.7012 1.4088 3.0624 3.125 3.0624h14.0625c2.1163 0 3.97-1.0026 5.0625-2.5937l4.3438-6.5938c.1087-.1624.2025-.3475.2812-.5312h4.8125l-3.3125 5.0313c-.31.4787-.5 1.045-.5 1.6562 0 1.7012 1.41 3.0313 3.125 3.0313h4.75c2.7688 0 5.07-1.7927 5.8125-4.25h-5.7812l3.5937-5.4688h7.75l-3.3125 5c-.31.4787-.5 1.045-.5 1.6563 0 1.7 1.41 3.0624 3.125 3.0624h6.75c2.5225 0 4.6688-1.4723 5.5938-3.5937-.0263.1676-.0313.3561-.0313.5313 0 1.7012 1.3763 3.0624 3.0938 3.0624h14.0625c2.1162 0 3.9987-1.0012 5.0937-2.5937l4.3125-6.625c.3388-.4813.5313-1.0525.5313-1.6875 0-1.7-1.3763-3.0938-3.0938-3.0938h-14.2187c-2.0751.0375-3.895 1.0888-4.9688 2.6563l-4.375 6.6563c-.0925.1462-.1525.2762-.2187.4374h-7.75l3.5937-5.4687H114.2l2.7812-4.2813h-5.125l2.5313-3.8437h-7.7188l-2.5312 3.8438H96.45l2.5-3.8438h-7.7188l-2.5 3.8438h-5.0625l-2.3437 3.5625c.025-.1538.0312-.3388.0312-.5 0-1.7-1.4087-3.0625-3.125-3.0625H64.0437c-2.0737.0374-3.8962 1.0587-4.9687 2.625L54.7 21.5587c-.0901.1437-.1525.31-.2188.4687H48.7l8.9375-13.625zm-28.5313 5.1563l4.3125 3.7187-7.7187 3.7188-4.3125-3.7188zm46.6875 2.9687H73.45l-3.5938 5.4688h-7.7187zm58.7188 0h7.7187l-3.5937 5.4688h-7.7188z" fill="#fff" stroke="#fff" stroke-width=".55" stroke-miterlimit="3.864"/></svg>