
    <svg
      width="14"
      height="31"
      viewBox="0 0 14 31"
      fill="none"
      xmlns="http://www.w3.org/2000/svg"
    >
      <path
        d="M13.1028 4.50459C13.1958 3.97692 12.9903 3.43629 12.323 3.15008C9.78775 2.06117 6.88674 2.29614 4.12471 3.06822C4.1253 3.18011 4.12 3.29259 4.10233 3.40626C3.95864 4.33204 3.9286 5.13002 3.94686 6.08348L9.12581 5.89915C9.12581 5.89915 9.85136 6.08996 9.31073 6.3479C8.54926 6.38147 3.52402 6.62352 3.52402 6.62352C3.46218 5.34556 3.45806 4.06526 3.6524 2.81145C3.95039 0.886274 1.00993 0.0594322 0.708988 1.99992C0.319124 4.51224 0.507579 7.00337 0.654808 9.52747C0.718411 10.6341 1.91745 11.4927 2.951 10.8455C3.69598 10.3785 4.41387 9.85432 5.0982 9.28955L5.09584 10.276L5.07464 20.9148V29.354C5.07464 30.2627 5.73894 31 6.67355 31C7.60699 31 8.36551 30.2627 8.36551 29.354V17.2918H9.85901C9.85901 20.118 9.85901 26.5684 9.85901 29.3952C9.85901 31.3634 12.912 31.3634 12.912 29.3952C12.912 26.5684 12.912 23.7422 12.912 20.9172C13.5344 8.17178 13.5368 8.21006 13.1028 4.50459Z"
        fill="white"
      />
    </svg>
