<svg width="25" height="14" viewBox="0 0 25 14" fill="none" xmlns="http://www.w3.org/2000/svg">
<path d="M2.64448 13.6077C5.61584 12.1548 8.58719 10.7033 11.5593 9.2504C12.529 10.6947 14.2663 10.8479 15.7177 10.1019C17.4849 9.19411 19.2541 8.28489 21.0199 7.37709C21.094 9.03735 21.1652 10.699 21.2372 12.3593C21.3291 14.4428 24.5591 14.3024 24.4672 12.2189C24.3696 9.97721 24.2734 7.73551 24.1751 5.49452C24.9239 4.5112 24.9446 2.97065 24.2948 1.96452C23.3307 0.475996 21.5714 0.312108 20.1014 1.06599C17.5419 2.38137 14.9824 3.69603 12.4243 5.0107C12.1329 5.16033 11.8913 5.36697 11.6946 5.60853C8.0941 7.36854 4.49428 9.12855 0.893022 10.8893C-0.976723 11.8021 0.791126 14.5126 2.64448 13.6077Z" fill="white"/>
</svg>
